<?xml version="1.0" standalone="no"?>
<svg version="1.0" viewBox="0 0 7962.000000 8219.000000">
    <g transform="translate(0.000000,8219.000000) scale(0.100000,-0.100000)" fill="#436EB3" stroke="none">
        <path d="M37555 82173 c-364 -42 -632 -116 -920 -252 -601 -286 -1087 -797
-1344 -1416 -88 -211 -151 -447 -187 -702 -16 -106 -18 -321 -24 -2158 -7
-2227 -3 -2102 -65 -2482 -159 -980 -568 -1878 -1205 -2643 -134 -161 -479
-506 -639 -639 -344 -287 -689 -510 -1076 -697 -316 -153 -533 -230 -1130
-403 -627 -181 -1348 -416 -1976 -644 -383 -139 -538 -189 -751 -241 -1044
-256 -2146 -175 -3176 236 -867 344 -1663 937 -2244 1669 -41 52 -578 758
-1193 1569 -615 811 -1149 1512 -1187 1557 -158 187 -402 398 -623 538 -112
70 -358 192 -486 239 -202 74 -428 129 -654 157 -129 16 -481 16 -610 0 -417
-53 -802 -188 -1143 -401 -85 -54 -3344 -2513 -3583 -2704 -107 -86 -303 -285
-397 -403 -384 -485 -592 -1081 -592 -1698 0 -529 156 -1053 444 -1490 40 -60
527 -708 1081 -1440 1156 -1525 1116 -1472 1222 -1630 496 -744 795 -1575 888
-2475 23 -214 30 -644 16 -860 -60 -892 -320 -1704 -782 -2446 -90 -146 -215
-321 -381 -536 -365 -471 -741 -989 -1108 -1528 -149 -220 -239 -341 -353
-480 -389 -470 -837 -855 -1377 -1180 -282 -170 -760 -386 -1085 -490 -1073
-342 -2238 -342 -3302 1 -87 28 -666 250 -1288 494 -621 243 -1172 457 -1223
474 -968 324 -2054 67 -2780 -659 -210 -211 -378 -444 -506 -703 -86 -173
-1633 -4101 -1690 -4290 -119 -394 -147 -820 -80 -1227 92 -558 365 -1090 765
-1490 230 -230 526 -436 804 -558 50 -21 828 -328 1730 -682 902 -353 1701
-669 1775 -702 467 -205 948 -509 1345 -848 164 -140 477 -457 609 -615 297
-356 507 -677 706 -1080 252 -511 407 -1005 484 -1545 55 -384 60 -577 37
-1520 -8 -341 -11 -699 -7 -880 7 -334 -3 -592 -34 -871 -187 -1658 -1135
-3140 -2558 -4001 -175 -106 -387 -215 -2082 -1066 -855 -430 -1604 -813
-1665 -851 -175 -110 -298 -206 -448 -351 -237 -229 -407 -460 -547 -745 -144
-292 -217 -531 -266 -871 -22 -147 -24 -511 -5 -659 31 -239 92 -477 178 -695
41 -105 1891 -3798 2006 -4005 635 -1145 2012 -1681 3242 -1262 153 53 171 60
455 197 428 206 741 323 1115 415 445 110 820 155 1285 155 473 0 844 -46
1307 -160 364 -90 685 -208 1039 -380 580 -281 1023 -597 1485 -1059 315 -316
485 -527 790 -982 426 -638 898 -1291 1342 -1857 415 -531 548 -732 743 -1122
630 -1263 718 -2755 241 -4120 -137 -395 -346 -820 -571 -1165 -40 -60 -399
-575 -799 -1143 -400 -567 -753 -1074 -784 -1125 -180 -295 -308 -653 -365
-1022 -29 -186 -31 -547 -5 -735 68 -483 243 -909 534 -1298 97 -131 343 -382
468 -479 134 -104 3571 -2529 3658 -2582 332 -198 655 -314 1038 -372 172 -26
530 -32 694 -10 527 68 1004 269 1405 592 129 104 293 267 392 391 41 51 382
530 758 1063 842 1196 884 1251 1220 1585 270 269 497 455 810 665 729 487
1516 775 2410 881 183 22 727 30 930 15 220 -17 425 -46 650 -91 254 -51 437
-102 722 -201 802 -279 1332 -449 1974 -635 386 -111 520 -155 716 -233 1543
-615 2726 -1981 3141 -3626 67 -265 102 -453 139 -742 20 -162 21 -219 28
-1683 7 -1650 5 -1594 66 -1881 135 -643 529 -1243 1069 -1631 283 -203 599
-349 935 -432 311 -76 89 -70 2655 -74 1654 -2 2332 0 2415 8 619 61 1190 331
1636 775 166 165 236 250 362 438 265 397 414 856 442 1358 5 96 10 779 10
1519 0 1120 3 1374 15 1520 175 2003 1418 3735 3219 4484 210 88 346 134 679
232 647 190 1370 427 1907 624 620 228 885 306 1260 369 491 83 1011 93 1515
30 1217 -153 2402 -760 3241 -1659 228 -244 187 -193 1329 -1705 290 -385 559
-737 597 -782 96 -114 285 -294 406 -386 393 -301 841 -482 1357 -548 145 -19
501 -16 655 5 407 55 829 212 1151 429 125 84 3420 2576 3559 2692 110 92 324
316 408 428 307 408 492 878 543 1381 15 153 6 535 -15 670 -48 293 -127 543
-255 801 -50 99 -123 230 -163 290 -40 61 -382 517 -759 1015 -377 498 -724
961 -771 1030 -947 1385 -1211 3153 -706 4719 144 446 374 924 625 1296 33 50
211 290 394 535 563 750 949 1303 1428 2050 278 432 493 701 828 1032 192 191
358 335 555 484 1131 852 2515 1226 3903 1054 88 -11 212 -30 275 -41 63 -12
856 -192 1761 -400 906 -208 1687 -385 1735 -394 307 -52 680 -47 979 15 404
83 783 254 1106 498 459 347 803 843 963 1390 41 139 979 4218 1006 4374 44
255 49 541 15 803 -141 1069 -916 1964 -1954 2254 -58 17 -549 132 -1091 256
-1110 255 -1166 268 -1367 331 -1068 331 -2010 1000 -2685 1905 -199 267 -353
520 -512 839 -304 612 -484 1244 -556 1955 -6 55 -15 366 -20 690 -14 894 -29
1309 -71 1975 -47 733 1 1270 168 1875 151 554 421 1129 757 1614 522 753
1249 1374 2080 1776 94 46 995 433 2001 860 1007 427 1882 802 1945 834 259
130 478 288 691 501 156 155 240 256 344 412 474 709 591 1587 318 2388 -51
151 -1723 4072 -1794 4210 -124 236 -289 460 -484 655 -452 453 -1035 725
-1680 786 -157 15 -479 6 -620 -16 -158 -25 -319 -63 -460 -110 -71 -24 -726
-296 -1455 -605 -729 -309 -1379 -584 -1445 -610 -282 -112 -688 -228 -1000
-285 -324 -60 -616 -85 -970 -85 -270 0 -431 10 -675 40 -1055 132 -2064 586
-2860 1287 -151 133 -424 411 -539 548 -81 98 -135 168 -528 695 -239 321
-493 647 -783 1005 -411 508 -558 729 -770 1160 -291 590 -451 1161 -522 1860
-17 170 -17 756 0 930 86 877 353 1678 799 2393 85 137 10 30 1207 1727 567
803 1057 1502 1090 1554 147 235 292 593 350 868 76 360 78 766 6 1119 -103
508 -347 972 -704 1341 -66 69 -166 163 -221 208 -97 80 -3417 2418 -3660
2577 -343 226 -772 375 -1199 419 -151 15 -525 6 -659 -15 -560 -91 -1028
-311 -1437 -678 -203 -181 -258 -251 -777 -988 -1466 -2081 -1802 -2556 -1875
-2651 -421 -542 -939 -1002 -1526 -1356 -208 -125 -583 -311 -807 -400 -493
-195 -961 -308 -1515 -365 -167 -17 -743 -17 -920 0 -304 30 -644 91 -905 163
-60 17 -238 72 -395 124 -400 131 -643 208 -1030 324 -184 55 -379 116 -433
136 -1143 411 -2082 1139 -2732 2120 -464 699 -732 1435 -841 2310 -16 128
-18 324 -24 2255 -5 1533 -10 2138 -19 2200 -65 473 -202 849 -433 1197 -126
188 -196 273 -362 438 -378 376 -830 621 -1348 730 -270 57 -176 55 -2648 54
-1251 -1 -2288 -4 -2305 -6z m5073 -34698 c355 -50 648 -177 847 -367 213
-202 296 -437 236 -669 -11 -41 -465 -1523 -1009 -3294 -545 -1771 -1463
-4759 -2041 -6640 -578 -1881 -1058 -3440 -1067 -3465 -66 -183 -257 -378
-490 -497 -622 -319 -1504 -231 -1956 195 -173 164 -255 344 -246 546 l5 101
2047 6660 c1126 3663 2060 6697 2075 6742 118 346 551 624 1076 692 114 14
409 12 523 -4z m-9258 -780 c117 -47 215 -142 262 -254 l23 -56 3 -1250 c2
-1221 2 -1252 -17 -1315 -26 -84 -64 -143 -132 -204 -44 -40 -681 -379 -3504
-1868 -1897 -1000 -3466 -1832 -3485 -1847 -19 -15 -51 -58 -70 -96 -31 -61
-35 -76 -34 -145 1 -94 32 -167 97 -226 28 -26 1232 -682 3612 -1969 3377
-1826 3573 -1933 3631 -1990 62 -62 105 -136 123 -216 7 -28 11 -483 11 -1279
0 -1349 2 -1293 -57 -1402 -31 -58 -123 -147 -181 -177 -92 -47 -206 -62 -300
-40 -26 6 -1748 854 -3827 1884 -6433 3189 -7343 3642 -7408 3688 -154 111
-270 278 -324 467 -17 61 -18 122 -18 965 l0 900 28 89 c66 212 184 382 347
503 30 23 777 427 1660 898 7626 4073 9245 4936 9287 4949 63 21 211 15 273
-9z m13900 2 c36 -13 2288 -1210 5005 -2661 2717 -1451 4981 -2660 5030 -2686
568 -301 840 -450 890 -485 177 -126 310 -325 368 -552 22 -88 22 -90 22 -958
0 -870 0 -870 -23 -950 -47 -170 -151 -334 -281 -442 -55 -46 -171 -107 -701
-371 -5326 -2644 -10527 -5217 -10570 -5228 -99 -26 -216 -12 -312 37 -109 55
-204 187 -227 313 -15 80 -15 2451 -1 2526 22 116 92 225 184 285 28 19 1648
898 3601 1954 2494 1350 3561 1932 3588 1958 111 108 127 287 37 411 -16 23
-54 57 -82 76 -29 18 -1583 840 -3453 1826 -1870 986 -3419 1803 -3441 1817
-95 54 -178 174 -203 291 -15 70 -16 2424 -1 2503 14 77 64 172 119 227 51 51
146 106 207 121 73 17 175 12 244 -12z" />
    </g>
</svg>